<svg xmlns="http://www.w3.org/2000/svg" xmlns:xlink="http://www.w3.org/1999/xlink" width="500" zoomAndPan="magnify" viewBox="0 0 375 374.999991" height="500" preserveAspectRatio="xMidYMid meet" version="1.0"><defs><clipPath id="a729b8f83d"><path d="M 13.828125 174 L 171 174 L 171 328 L 13.828125 328 Z M 13.828125 174 " clip-rule="nonzero"/></clipPath><clipPath id="9925c45a54"><path d="M 150 170 L 361.078125 170 L 361.078125 375 L 150 375 Z M 150 170 " clip-rule="nonzero"/></clipPath></defs><path fill="#ffffff" d="M 108.339844 100.074219 C 106.964844 99.402344 105.644531 98.707031 104.367188 98 C 108.101562 80.339844 112.683594 58.441406 116.574219 39.289062 C 117.007812 37.175781 117.464844 35.152344 117.957031 33.234375 C 121.160156 20.644531 125.59375 12.15625 130.417969 7.152344 C 136.347656 0.992188 142.84375 0.132812 148.292969 3.480469 C 150.578125 4.882812 152.675781 7.019531 154.46875 9.820312 C 155.738281 11.796875 157.304688 13.613281 159.046875 15.261719 C 162.21875 18.269531 165.808594 20.609375 169.640625 22.257812 C 179.160156 26.378906 190.113281 26.3125 199.589844 22.042969 C 203.222656 20.398438 206.644531 18.136719 209.683594 15.261719 C 211.421875 13.613281 212.984375 11.796875 214.261719 9.820312 C 216.269531 6.699219 218.65625 4.390625 221.25 3.015625 C 226.140625 0.441406 231.769531 1.164062 237.054688 5.945312 C 242.140625 10.542969 246.902344 18.890625 250.359375 31.664062 C 251.011719 34.046875 251.609375 36.59375 252.152344 39.289062 C 256.167969 59.097656 260.933594 81.847656 264.742188 99.804688 C 264.5625 99.894531 264.382812 99.984375 264.203125 100.074219 C 243.566406 110.257812 215.894531 115.875 186.277344 115.875 C 156.664062 115.875 128.984375 110.257812 108.339844 100.074219 Z M 108.339844 100.074219 " fill-opacity="1" fill-rule="nonzero"/><path fill="#ffffff" d="M 322.472656 149.1875 C 322.472656 170.820312 260.640625 188.351562 184.363281 188.351562 C 108.09375 188.351562 46.253906 170.820312 46.253906 149.1875 C 46.253906 136.816406 66.503906 125.773438 98.117188 118.597656 C 98.410156 118.746094 98.691406 118.890625 98.984375 119.03125 C 122.480469 130.636719 153.476562 137.019531 186.277344 137.019531 C 218.902344 137.019531 249.761719 130.703125 273.207031 119.203125 C 303.328125 126.386719 322.472656 137.152344 322.472656 149.1875 Z M 322.472656 149.1875 " fill-opacity="1" fill-rule="nonzero"/><g clip-path="url(#a729b8f83d)"><path fill="#ffffff" d="M 170.4375 306.078125 C 168.910156 308.347656 167.421875 310.628906 165.980469 312.953125 C 162.792969 318.050781 159.964844 322.980469 157.460938 327.683594 L 54.253906 275.5 L 89.621094 260.769531 L 13.828125 217.949219 L 53.421875 174.980469 C 61.105469 179.652344 71.28125 183.804688 83.738281 187.34375 C 83.847656 187.371094 83.960938 187.402344 84.066406 187.433594 C 93.234375 236.339844 136.054688 278.914062 170.4375 306.078125 Z M 170.4375 306.078125 " fill-opacity="1" fill-rule="nonzero"/></g><g clip-path="url(#9925c45a54)"><path fill="#ffffff" d="M 285 265.609375 L 324.996094 273.820312 C 324.996094 273.820312 215.949219 287.714844 150.257812 374.871094 C 150.257812 374.871094 171.058594 278.621094 280.085938 226.214844 C 283.355469 224.644531 285.417969 221.316406 285.417969 217.6875 L 285.417969 187.214844 C 299.003906 183.332031 309.855469 178.710938 317.671875 173.46875 C 319.121094 172.5 320.449219 171.515625 321.660156 170.527344 L 361.203125 217.957031 Z M 285 265.609375 " fill-opacity="1" fill-rule="nonzero"/></g><path fill="#ffffff" d="M 174.902344 205.949219 C 173.664062 217.21875 156.3125 224.542969 136.152344 222.308594 C 115.984375 220.085938 100.648438 209.144531 101.902344 197.878906 C 102.121094 195.871094 102.859375 193.972656 104.0625 192.25 C 124.707031 196.28125 148.59375 198.675781 173.710938 199.214844 C 174.726562 201.394531 175.15625 203.671875 174.902344 205.949219 Z M 174.902344 205.949219 " fill-opacity="1" fill-rule="nonzero"/><path fill="#ffffff" d="M 238.890625 222.308594 C 218.726562 224.550781 201.367188 217.21875 200.125 205.949219 C 199.871094 203.605469 200.328125 201.261719 201.417969 199.019531 C 226.421875 198.167969 250.003906 195.453125 270.148438 191.113281 C 271.820312 193.144531 272.871094 195.414062 273.140625 197.878906 C 274.378906 209.144531 259.042969 220.085938 238.890625 222.308594 Z M 238.890625 222.308594 " fill-opacity="1" fill-rule="nonzero"/></svg>